# xmcd
#
# Track frame offsets:
#	150
#	16976
#	37906
#	49704
#	60121
#	75021
#	91404
#	110589
#	127581
#	140582
#	155637
#	175360
#	196753
#	210565
#	226695
#	242125
#	253434
#	265407
#	284010
#	295822
#	307987
#	319424
#	333234
#	348156
#
# Disc length: 4786 seconds
#
# Revision: 1
# Processed by: cddbd v1.5.2PL0 Copyright (c) Steve Scherf et al.
# Submitted via: EasyCDDAExtractor 8.2.3.1
#
DISCID=4c12b018
DTITLE=Various Artist - Country and Western  Part-3  CD-1
DYEAR=2005
DGENRE=Country
TTITLE0=REDNEX-Collection - Shooter
TTITLE1=GARTH BROOKS - Wrapped Up In You
TTITLE2=TRISHA YEARWOOD - That's What I Like About You
TTITLE3=SHENANDOAH - Nowhere To Go But Back
TTITLE4=Collection - Restless Wind-SHAVER
TTITLE5=LEE GIBSON - It Felt Right
TTITLE6=SHANIA TWAIN - If You Wanna Touch Herask
TTITLE7=TOBY KEITH -  Don't Leave, I Think I Love You
TTITLE8=KILLBILLY  - Muddy Rio Grande
TTITLE9=DWIGHT YOAKAM - Ain't That Lonely Yet
TTITLE10=GARTH BROOKS - Rodeo Or Mexico
TTITLE11=CHELY WRIGHT - Sea of Cowboy Hats
TTITLE12=CARL MANN - Till I Walz Again with You
TTITLE13=SHANIA TWAIN - Love Gets My Every Time
TTITLE14=SHENANDOAH - Next To You, Next To Me
TTITLE15=WADE HAYES - Mine to Lose
TTITLE16=LORETTA LYNN  - Story Of My Life
TTITLE17=MARTY STUART - Maria (Love to See You Again)
TTITLE18=WILLIE NELSON - Ol' Blue
TTITLE19=MARK O'CONNOR - The Ballad of Sally Anne
TTITLE20=CARRY and RON - Six of One
TTITLE21=CARL MANN - When the Leaves Have Turned All Brown
TTITLE22=ALABAMA - Take a Little Trip
TTITLE23=DIXIE CHICKS - Lil' Jack Blade
EXTD=
EXTT0=
EXTT1=
EXTT2=
EXTT3=
EXTT4=
EXTT5=
EXTT6=
EXTT7=
EXTT8=
EXTT9=
EXTT10=
EXTT11=
EXTT12=
EXTT13=
EXTT14=
EXTT15=
EXTT16=
EXTT17=
EXTT18=
EXTT19=
EXTT20=
EXTT21=
EXTT22=
EXTT23=
PLAYORDER=
